<svg width="28px" height="20px" viewBox="0 0 28 20" version="1.1" xmlns="http://www.w3.org/2000/svg" xmlns:xlink="http://www.w3.org/1999/xlink">
    <defs>
        <rect id="path-1" x="0" y="0" width="28" height="20"></rect>
    </defs>
    <g id="icon_spain" stroke="none" stroke-width="1" fill="none" fill-rule="evenodd">
        <g id="Icon-Spain">
            <mask id="mask-2" fill="white">
                <use xlink:href="#path-1"></use>
            </mask>
            <use id="Mask" fill="#FFFFFF" xlink:href="#path-1"></use>
            <rect id="Rectangle-2" fill="#DD172C" mask="url(#mask-2)" x="0" y="0" width="28" height="5.33333333"></rect>
            <rect id="Rectangle-2" fill="#DD172C" mask="url(#mask-2)" x="0" y="14.6666667" width="28" height="5.33333333"></rect>
            <rect id="Rectangle-2" fill="#FFD133" mask="url(#mask-2)" x="0" y="5.33333333" width="28" height="9.33333333"></rect>
            <polygon id="Rectangle-139-Copy" fill="#FFEDB1" mask="url(#mask-2)" points="7.33333333 9.33333333 8.66666667 9.33333333 8.66666667 10 7.33333333 10"></polygon>
            <path d="M6.03245042,9.24791744 L6.21424202,11.4294166 C6.25648615,11.9363461 6.70485286,12.3504167 7.20849609,12.3504167 L7.45817057,12.3504167 C7.96165567,12.3504167 8.41027546,11.9352068 8.45242465,11.4294166 L8.63421625,9.24791744 C8.64724023,9.09162966 8.54569398,8.98291667 8.38861529,8.98291667 L6.27805138,8.98291667 C6.12464843,8.98291667 6.0198403,9.09659598 6.03245042,9.24791744 Z" id="Rectangle-137" stroke="#A41517" stroke-width="0.6325" mask="url(#mask-2)"></path>
            <polygon id="Rectangle-139" fill="#A41517" mask="url(#mask-2)" points="6 10 8.66666667 10 8.66666667 10.6666667 8 10.6666667 7.33333333 12 6.66666667 10.6666667 6 10.6666667"></polygon>
            <rect id="Rectangle-135" fill="#A41517" mask="url(#mask-2)" x="4" y="8" width="1.33333333" height="4.66666667"></rect>
            <rect id="Rectangle-135-Copy" fill="#A41517" mask="url(#mask-2)" x="9.33333333" y="8" width="1.33333333" height="4.66666667"></rect>
            <path d="M6,7.33333333 C6,6.9651435 6.30590057,6.66666667 6.6729126,6.66666667 L7.99375407,6.66666667 C8.36539343,6.66666667 8.66666667,6.96257655 8.66666667,7.33333333 L8.66666667,7.69075521 C8.66666667,7.86154639 8.52329508,8 8.36076609,8 L6.30590057,8 C6.13695635,8 6,7.85730998 6,7.69075521 L6,7.33333333 Z" id="Rectangle-138" fill="#A41517" mask="url(#mask-2)"></path>
        </g>
    </g>
</svg>